<svg xmlns="http://www.w3.org/2000/svg" viewBox="0 0 1100 1090" font-family="'SF Mono','Fira Code','JetBrains Mono',monospace">
  <defs>
    <linearGradient id="wpBg" x1="0%" y1="0%" x2="100%" y2="100%">
      <stop offset="0%" stop-color="#1a1a2e"/><stop offset="100%" stop-color="#16213e"/>
    </linearGradient>
    <linearGradient id="odooBg" x1="0%" y1="0%" x2="100%" y2="100%">
      <stop offset="0%" stop-color="#714B67"/><stop offset="100%" stop-color="#8F5C7A"/>
    </linearGradient>
    <linearGradient id="bidir" x1="0%" y1="0%" x2="0%" y2="100%">
      <stop offset="0%" stop-color="#3b82f6"/><stop offset="100%" stop-color="#2563eb"/>
    </linearGradient>
    <linearGradient id="push" x1="0%" y1="0%" x2="0%" y2="100%">
      <stop offset="0%" stop-color="#10b981"/><stop offset="100%" stop-color="#059669"/>
    </linearGradient>
    <linearGradient id="pull" x1="0%" y1="0%" x2="0%" y2="100%">
      <stop offset="0%" stop-color="#f59e0b"/><stop offset="100%" stop-color="#d97706"/>
    </linearGradient>
    <linearGradient id="infra" x1="0%" y1="0%" x2="100%" y2="100%">
      <stop offset="0%" stop-color="#2c3e50"/><stop offset="100%" stop-color="#34495e"/>
    </linearGradient>
    <linearGradient id="client" x1="0%" y1="0%" x2="100%" y2="100%">
      <stop offset="0%" stop-color="#e67e22"/><stop offset="100%" stop-color="#d35400"/>
    </linearGradient>
    <filter id="s">
      <feDropShadow dx="0" dy="2" stdDeviation="3" flood-color="#000" flood-opacity="0.35"/>
    </filter>
    <filter id="g">
      <feGaussianBlur stdDeviation="2" result="b"/>
      <feMerge><feMergeNode in="b"/><feMergeNode in="SourceGraphic"/></feMerge>
    </filter>
  </defs>

  <!-- Background -->
  <rect width="1100" height="1090" rx="12" fill="#0d1117"/>

  <!-- WordPress container -->
  <rect x="30" y="20" width="1040" height="930" rx="10" fill="url(#wpBg)" stroke="#30363d" stroke-width="1.5" filter="url(#s)"/>
  <text x="550" y="48" text-anchor="middle" fill="#58a6ff" font-size="15" font-weight="700" letter-spacing="3">WORDPRESS</text>

  <!-- Legend -->
  <rect x="700" y="37" width="10" height="10" rx="2" fill="url(#bidir)"/>
  <text x="715" y="46" fill="#8b949e" font-size="9">Bidirectional</text>
  <rect x="810" y="37" width="10" height="10" rx="2" fill="url(#push)"/>
  <text x="825" y="46" fill="#8b949e" font-size="9">WP &#8594; Odoo</text>
  <rect x="910" y="37" width="10" height="10" rx="2" fill="url(#pull)"/>
  <text x="925" y="46" fill="#8b949e" font-size="9">Odoo &#8594; WP</text>

  <!-- ═══ ROW 1: Commerce ═══ -->
  <text x="55" y="72" fill="#484f58" font-size="9" font-weight="600" letter-spacing="1">COMMERCE</text>

  <rect x="80" y="78" width="220" height="50" rx="7" fill="url(#bidir)" filter="url(#s)"/>
  <text x="190" y="99" text-anchor="middle" fill="#fff" font-size="11" font-weight="700">CRM &#8596;</text>
  <text x="190" y="115" text-anchor="middle" fill="rgba(255,255,255,0.6)" font-size="8.5">Contacts &#183; Leads</text>

  <rect x="320" y="78" width="220" height="50" rx="7" fill="url(#bidir)" filter="url(#s)"/>
  <text x="430" y="99" text-anchor="middle" fill="#fff" font-size="11" font-weight="700">WooCommerce &#8596;</text>
  <text x="430" y="115" text-anchor="middle" fill="rgba(255,255,255,0.6)" font-size="8.5">Products &#183; Orders &#183; Variants</text>

  <rect x="560" y="78" width="220" height="50" rx="7" fill="url(#bidir)" filter="url(#s)"/>
  <text x="670" y="99" text-anchor="middle" fill="#fff" font-size="11" font-weight="700">EDD &#8596;</text>
  <text x="670" y="115" text-anchor="middle" fill="rgba(255,255,255,0.6)" font-size="8.5">Downloads &#183; Orders</text>

  <rect x="800" y="78" width="220" height="50" rx="7" fill="url(#pull)" filter="url(#s)"/>
  <text x="910" y="99" text-anchor="middle" fill="#fff" font-size="11" font-weight="700">Sales &#8592;</text>
  <text x="910" y="115" text-anchor="middle" fill="rgba(255,255,255,0.6)" font-size="8.5">Orders &#183; Invoices &#183; Portal</text>

  <!-- Commerce mutual exclusivity bracket (cols 2-4) -->
  <path d="M320,132 L320,139 L1020,139 L1020,132" fill="none" stroke="#ef4444" stroke-width="1.2" opacity="0.7"/>
  <text x="670" y="151" text-anchor="middle" fill="#ef4444" font-size="8" font-weight="600">&#10005; commerce (WC &#8250; EDD &#8250; Sales)</text>

  <!-- ═══ ROW 2: Memberships ═══ -->
  <text x="55" y="170" fill="#484f58" font-size="9" font-weight="600" letter-spacing="1">MEMBERSHIPS</text>

  <rect x="80" y="176" width="220" height="50" rx="7" fill="url(#bidir)" filter="url(#s)"/>
  <text x="190" y="197" text-anchor="middle" fill="#fff" font-size="11" font-weight="700">WC Memberships &#8596;</text>
  <text x="190" y="213" text-anchor="middle" fill="rgba(255,255,255,0.6)" font-size="8.5">Plans &#183; Membership Lines</text>

  <rect x="320" y="176" width="220" height="50" rx="7" fill="url(#push)" filter="url(#s)"/>
  <text x="430" y="197" text-anchor="middle" fill="#fff" font-size="11" font-weight="700">MemberPress &#8594;</text>
  <text x="430" y="213" text-anchor="middle" fill="rgba(255,255,255,0.6)" font-size="8.5">Plans &#183; Txn &#183; Subscriptions</text>

  <rect x="560" y="176" width="220" height="50" rx="7" fill="url(#push)" filter="url(#s)"/>
  <text x="670" y="197" text-anchor="middle" fill="#fff" font-size="11" font-weight="700">PMPro &#8594;</text>
  <text x="670" y="213" text-anchor="middle" fill="rgba(255,255,255,0.6)" font-size="8.5">Levels &#183; Orders &#183; Memberships</text>

  <rect x="800" y="176" width="220" height="50" rx="7" fill="url(#push)" filter="url(#s)"/>
  <text x="910" y="197" text-anchor="middle" fill="#fff" font-size="11" font-weight="700">RCP &#8594;</text>
  <text x="910" y="213" text-anchor="middle" fill="rgba(255,255,255,0.6)" font-size="8.5">Levels &#183; Payments &#183; Memberships</text>

  <!-- Membership mutual exclusivity bracket -->
  <path d="M80,230 L80,237 L1020,237 L1020,230" fill="none" stroke="#ef4444" stroke-width="1.2" opacity="0.7"/>
  <text x="550" y="249" text-anchor="middle" fill="#ef4444" font-size="8" font-weight="600">&#10005; memberships (mutually exclusive)</text>

  <!-- ═══ ROW 3: Donations & Forms ═══ -->
  <text x="55" y="268" fill="#a78bfa" font-size="9" font-weight="600" letter-spacing="1">DONATIONS</text>

  <!-- Shared accounting dashed bracket (cols 1-3) -->
  <rect x="70" y="274" width="720" height="56" rx="6" fill="rgba(167,139,250,0.04)" stroke="#a78bfa" stroke-width="1" stroke-dasharray="5,3" opacity="0.5"/>

  <rect x="80" y="280" width="220" height="44" rx="7" fill="url(#push)" filter="url(#s)"/>
  <text x="190" y="299" text-anchor="middle" fill="#fff" font-size="11" font-weight="700">GiveWP &#8594;</text>
  <text x="190" y="313" text-anchor="middle" fill="rgba(255,255,255,0.6)" font-size="8.5">Forms &#183; Donations</text>

  <rect x="320" y="280" width="220" height="44" rx="7" fill="url(#push)" filter="url(#s)"/>
  <text x="430" y="299" text-anchor="middle" fill="#fff" font-size="11" font-weight="700">Charitable &#8594;</text>
  <text x="430" y="313" text-anchor="middle" fill="rgba(255,255,255,0.6)" font-size="8.5">Campaigns &#183; Donations</text>

  <rect x="560" y="280" width="220" height="44" rx="7" fill="url(#push)" filter="url(#s)"/>
  <text x="670" y="299" text-anchor="middle" fill="#fff" font-size="11" font-weight="700">WP Simple Pay &#8594;</text>
  <text x="670" y="313" text-anchor="middle" fill="rgba(255,255,255,0.6)" font-size="8.5">Forms &#183; Stripe Payments</text>

  <rect x="800" y="278" width="220" height="48" rx="7" fill="url(#push)" filter="url(#s)"/>
  <text x="910" y="299" text-anchor="middle" fill="#fff" font-size="11" font-weight="700">Forms &#8594;</text>
  <text x="910" y="313" text-anchor="middle" fill="rgba(255,255,255,0.6)" font-size="8.5">7 plugins &#8594; Leads</text>

  <text x="430" y="342" text-anchor="middle" fill="#a78bfa" font-size="7.5" font-weight="600" opacity="0.7">Dual_Accounting &#183; Odoo_Accounting_Formatter</text>

  <!-- ═══ ROW 4: Invoicing & LMS ═══ -->
  <rect x="80" y="354" width="220" height="50" rx="7" fill="url(#bidir)" filter="url(#s)"/>
  <text x="190" y="375" text-anchor="middle" fill="#fff" font-size="11" font-weight="700">Sprout Invoices &#8596;</text>
  <text x="190" y="391" text-anchor="middle" fill="rgba(255,255,255,0.6)" font-size="8.5">Invoices &#183; Payments</text>

  <rect x="320" y="354" width="220" height="50" rx="7" fill="url(#push)" filter="url(#s)"/>
  <text x="430" y="375" text-anchor="middle" fill="#fff" font-size="11" font-weight="700">WP-Invoice &#8594;</text>
  <text x="430" y="391" text-anchor="middle" fill="rgba(255,255,255,0.6)" font-size="8.5">Invoices</text>

  <!-- Invoicing mutual exclusivity bracket (cols 1-2) -->
  <path d="M80,408 L80,415 L540,415 L540,408" fill="none" stroke="#ef4444" stroke-width="1.2" opacity="0.7"/>
  <text x="310" y="427" text-anchor="middle" fill="#ef4444" font-size="8" font-weight="600">&#10005; invoicing (SI &#8250; WPI)</text>

  <rect x="560" y="354" width="220" height="50" rx="7" fill="url(#bidir)" filter="url(#s)"/>
  <text x="670" y="375" text-anchor="middle" fill="#fff" font-size="11" font-weight="700">LearnDash &#8596;</text>
  <text x="670" y="391" text-anchor="middle" fill="rgba(255,255,255,0.6)" font-size="8.5">Courses &#183; Groups &#183; Enrollments</text>

  <rect x="800" y="354" width="220" height="50" rx="7" fill="url(#bidir)" filter="url(#s)"/>
  <text x="910" y="375" text-anchor="middle" fill="#fff" font-size="11" font-weight="700">LifterLMS &#8596;</text>
  <text x="910" y="391" text-anchor="middle" fill="rgba(255,255,255,0.6)" font-size="8.5">Courses &#183; Orders &#183; Enrollments</text>

  <!-- ═══ ROW 5: Booking & Events ═══ -->
  <text x="55" y="435" fill="#484f58" font-size="9" font-weight="600" letter-spacing="1">BOOKING &amp; EVENTS</text>

  <rect x="80" y="440" width="220" height="50" rx="7" fill="url(#bidir)" filter="url(#s)"/>
  <text x="190" y="461" text-anchor="middle" fill="#fff" font-size="11" font-weight="700">Amelia &#8596;</text>
  <text x="190" y="477" text-anchor="middle" fill="rgba(255,255,255,0.6)" font-size="8.5">Services &#183; Appointments</text>

  <rect x="320" y="440" width="220" height="50" rx="7" fill="url(#bidir)" filter="url(#s)"/>
  <text x="430" y="461" text-anchor="middle" fill="#fff" font-size="11" font-weight="700">Bookly &#8596;</text>
  <text x="430" y="477" text-anchor="middle" fill="rgba(255,255,255,0.6)" font-size="8.5">Services &#183; Bookings</text>

  <rect x="560" y="440" width="220" height="50" rx="7" fill="url(#bidir)" filter="url(#s)"/>
  <text x="670" y="461" text-anchor="middle" fill="#fff" font-size="11" font-weight="700">WC Bookings &#8596;</text>
  <text x="670" y="477" text-anchor="middle" fill="rgba(255,255,255,0.6)" font-size="8.5">Products &#183; Bookings</text>

  <rect x="800" y="440" width="220" height="50" rx="7" fill="url(#bidir)" filter="url(#s)"/>
  <text x="910" y="461" text-anchor="middle" fill="#fff" font-size="11" font-weight="700">Events Calendar &#8596;</text>
  <text x="910" y="477" text-anchor="middle" fill="rgba(255,255,255,0.6)" font-size="8.5">Events &#183; Tickets &#183; Attendees</text>

  <!-- ═══ ROW 6: WC Extensions ═══ -->
  <text x="55" y="502" fill="#484f58" font-size="9" font-weight="600" letter-spacing="1">WC EXTENSIONS</text>

  <rect x="80" y="508" width="220" height="50" rx="7" fill="url(#bidir)" filter="url(#s)"/>
  <text x="190" y="529" text-anchor="middle" fill="#fff" font-size="11" font-weight="700">WC Subscriptions &#8596;</text>
  <text x="190" y="545" text-anchor="middle" fill="rgba(255,255,255,0.6)" font-size="8.5">Products &#183; Subs &#183; Renewals</text>

  <rect x="320" y="508" width="220" height="50" rx="7" fill="url(#push)" filter="url(#s)"/>
  <text x="430" y="529" text-anchor="middle" fill="#fff" font-size="11" font-weight="700">WC Bundle BOM &#8594;</text>
  <text x="430" y="545" text-anchor="middle" fill="rgba(255,255,255,0.6)" font-size="8.5">Bundles &#8594; mrp.bom</text>

  <rect x="560" y="508" width="220" height="50" rx="7" fill="url(#bidir)" filter="url(#s)"/>
  <text x="670" y="529" text-anchor="middle" fill="#fff" font-size="11" font-weight="700">WC Points &#8596;</text>
  <text x="670" y="545" text-anchor="middle" fill="rgba(255,255,255,0.6)" font-size="8.5">Points &#8596; loyalty.card</text>

  <rect x="800" y="508" width="220" height="50" rx="7" fill="url(#push)" filter="url(#s)"/>
  <text x="910" y="529" text-anchor="middle" fill="#fff" font-size="11" font-weight="700">Crowdfunding &#8594;</text>
  <text x="910" y="545" text-anchor="middle" fill="rgba(255,255,255,0.6)" font-size="8.5">Campaigns &#8594; Products</text>

  <!-- ═══ ROW 7: E-Commerce + Content + HR ═══ -->
  <text x="55" y="570" fill="#484f58" font-size="9" font-weight="600" letter-spacing="1">E-COMMERCE &amp; OTHER</text>

  <rect x="80" y="576" width="220" height="50" rx="7" fill="url(#push)" filter="url(#s)"/>
  <text x="190" y="597" text-anchor="middle" fill="#fff" font-size="11" font-weight="700">Ecwid &#8594;</text>
  <text x="190" y="613" text-anchor="middle" fill="rgba(255,255,255,0.6)" font-size="8.5">Products &#183; Orders</text>

  <rect x="320" y="576" width="220" height="50" rx="7" fill="url(#push)" filter="url(#s)"/>
  <text x="430" y="597" text-anchor="middle" fill="#fff" font-size="11" font-weight="700">ShopWP &#8594;</text>
  <text x="430" y="613" text-anchor="middle" fill="rgba(255,255,255,0.6)" font-size="8.5">Shopify Products</text>

  <!-- Ecommerce group note for Ecwid + ShopWP -->
  <path d="M80,630 L80,637 L540,637 L540,630" fill="none" stroke="#ef4444" stroke-width="1" opacity="0.5"/>
  <text x="310" y="648" text-anchor="middle" fill="#ef4444" font-size="7.5" opacity="0.7">&#10005; also in ecommerce group (with WC, EDD, Sales)</text>

  <rect x="560" y="576" width="220" height="50" rx="7" fill="url(#push)" filter="url(#s)"/>
  <text x="670" y="597" text-anchor="middle" fill="#fff" font-size="11" font-weight="700">WP Recipe Maker &#8594;</text>
  <text x="670" y="613" text-anchor="middle" fill="rgba(255,255,255,0.6)" font-size="8.5">Recipes &#8594; Products</text>

  <rect x="800" y="576" width="220" height="50" rx="7" fill="url(#bidir)" filter="url(#s)"/>
  <text x="910" y="597" text-anchor="middle" fill="#fff" font-size="11" font-weight="700">WP Job Manager &#8596;</text>
  <text x="910" y="613" text-anchor="middle" fill="rgba(255,255,255,0.6)" font-size="8.5">Jobs &#8596; hr.job</text>

  <!-- ═══ ROW 8: Helpdesk & Cross-Module (5 items, narrower) ═══ -->
  <text x="55" y="662" fill="#484f58" font-size="9" font-weight="600" letter-spacing="1">HELPDESK &amp; CROSS-MODULE</text>

  <rect x="53" y="668" width="186" height="50" rx="7" fill="url(#bidir)" filter="url(#s)"/>
  <text x="146" y="689" text-anchor="middle" fill="#fff" font-size="10" font-weight="700">Awesome Support &#8596;</text>
  <text x="146" y="705" text-anchor="middle" fill="rgba(255,255,255,0.6)" font-size="8">Tickets &#183; Helpdesk</text>

  <rect x="255" y="668" width="186" height="50" rx="7" fill="url(#bidir)" filter="url(#s)"/>
  <text x="348" y="689" text-anchor="middle" fill="#fff" font-size="10" font-weight="700">SupportCandy &#8596;</text>
  <text x="348" y="705" text-anchor="middle" fill="rgba(255,255,255,0.6)" font-size="8">Tickets &#183; Helpdesk</text>

  <!-- Helpdesk mutual exclusivity bracket (cols 1-2) -->
  <path d="M53,722 L53,729 L441,729 L441,722" fill="none" stroke="#ef4444" stroke-width="1" opacity="0.5"/>
  <text x="247" y="740" text-anchor="middle" fill="#ef4444" font-size="7.5" opacity="0.7">&#10005; helpdesk (AS &#8250; SC)</text>

  <rect x="457" y="668" width="186" height="50" rx="7" fill="url(#push)" filter="url(#s)"/>
  <text x="550" y="689" text-anchor="middle" fill="#fff" font-size="10" font-weight="700">AffiliateWP &#8594;</text>
  <text x="550" y="705" text-anchor="middle" fill="rgba(255,255,255,0.6)" font-size="8">Affiliates &#183; Vendor Bills</text>

  <rect x="659" y="668" width="186" height="50" rx="7" fill="url(#bidir)" filter="url(#s)"/>
  <text x="752" y="689" text-anchor="middle" fill="#fff" font-size="10" font-weight="700">ACF &#8596;</text>
  <text x="752" y="705" text-anchor="middle" fill="rgba(255,255,255,0.6)" font-size="8">Custom Fields &#8596; x_*</text>

  <rect x="861" y="668" width="186" height="50" rx="7" fill="url(#push)" filter="url(#s)"/>
  <text x="954" y="689" text-anchor="middle" fill="#fff" font-size="10" font-weight="700">WP All Import &#8594;</text>
  <text x="954" y="705" text-anchor="middle" fill="rgba(255,255,255,0.6)" font-size="8">CSV/XML &#8594; Sync Queue</text>

  <!-- ═══ Connector to infrastructure ═══ -->
  <line x1="550" y1="748" x2="550" y2="766" stroke="#484f58" stroke-width="2"/>
  <polygon points="550,771 545,763 555,763" fill="#484f58"/>

  <!-- ═══ CORE INFRASTRUCTURE ═══ -->
  <rect x="60" y="776" width="980" height="140" rx="8" fill="rgba(255,255,255,0.03)" stroke="#30363d" stroke-width="1" stroke-dasharray="4,4"/>
  <text x="1020" y="790" text-anchor="end" fill="#484f58" font-size="9" font-weight="600" letter-spacing="1">CORE</text>

  <!-- Infra row 1 -->
  <rect x="80" y="794" width="200" height="40" rx="6" fill="url(#infra)" filter="url(#s)"/>
  <text x="180" y="811" text-anchor="middle" fill="#e6edf3" font-size="10" font-weight="700">Sync Engine</text>
  <text x="180" y="824" text-anchor="middle" fill="rgba(255,255,255,0.45)" font-size="8">WP-Cron &#183; batch &#183; retry</text>

  <rect x="310" y="794" width="200" height="40" rx="6" fill="url(#infra)" filter="url(#s)"/>
  <text x="410" y="811" text-anchor="middle" fill="#e6edf3" font-size="10" font-weight="700">Queue Manager</text>
  <text x="410" y="824" text-anchor="middle" fill="rgba(255,255,255,0.45)" font-size="8">enqueue &#183; dedup</text>

  <rect x="540" y="794" width="200" height="40" rx="6" fill="url(#infra)" filter="url(#s)"/>
  <text x="640" y="811" text-anchor="middle" fill="#e6edf3" font-size="10" font-weight="700">Partner Service</text>
  <text x="640" y="824" text-anchor="middle" fill="rgba(255,255,255,0.45)" font-size="8">res.partner</text>

  <rect x="770" y="794" width="200" height="40" rx="6" fill="url(#infra)" filter="url(#s)"/>
  <text x="870" y="811" text-anchor="middle" fill="#e6edf3" font-size="10" font-weight="700">Entity Map</text>
  <text x="870" y="824" text-anchor="middle" fill="rgba(255,255,255,0.45)" font-size="8">WP &#8596; Odoo IDs</text>

  <!-- Infra row 2 -->
  <rect x="150" y="844" width="200" height="40" rx="6" fill="url(#infra)" filter="url(#s)"/>
  <text x="250" y="861" text-anchor="middle" fill="#e6edf3" font-size="10" font-weight="700">Field Mapper</text>
  <text x="250" y="874" text-anchor="middle" fill="rgba(255,255,255,0.45)" font-size="8">data transform</text>

  <rect x="450" y="844" width="200" height="40" rx="6" fill="url(#infra)" filter="url(#s)"/>
  <text x="550" y="861" text-anchor="middle" fill="#e6edf3" font-size="10" font-weight="700">Webhook Handler</text>
  <text x="550" y="874" text-anchor="middle" fill="rgba(255,255,255,0.45)" font-size="8">REST API &#183; rate limit</text>

  <rect x="750" y="844" width="200" height="40" rx="6" fill="url(#infra)" filter="url(#s)"/>
  <text x="850" y="861" text-anchor="middle" fill="#e6edf3" font-size="10" font-weight="700">Logger</text>
  <text x="850" y="874" text-anchor="middle" fill="rgba(255,255,255,0.45)" font-size="8">DB-backed &#183; levels</text>

  <!-- Lines to Odoo Client -->
  <line x1="250" y1="884" x2="380" y2="896" stroke="#e6edf3" stroke-width="1" opacity="0.2"/>
  <line x1="550" y1="884" x2="550" y2="896" stroke="#e6edf3" stroke-width="1" opacity="0.2"/>
  <line x1="850" y1="884" x2="720" y2="896" stroke="#e6edf3" stroke-width="1" opacity="0.2"/>

  <!-- Odoo Client -->
  <rect x="250" y="898" width="600" height="50" rx="8" fill="url(#client)" filter="url(#s)"/>
  <text x="550" y="915" text-anchor="middle" fill="#fff" font-size="11" font-weight="700">Odoo Client</text>

  <rect x="290" y="922" width="120" height="20" rx="4" fill="rgba(0,0,0,0.25)"/>
  <text x="350" y="936" text-anchor="middle" fill="rgba(255,255,255,0.85)" font-size="8.5" font-weight="600">JSON-RPC (17+)</text>

  <rect x="440" y="922" width="120" height="20" rx="4" fill="rgba(0,0,0,0.25)"/>
  <text x="500" y="936" text-anchor="middle" fill="rgba(255,255,255,0.85)" font-size="8.5" font-weight="600">XML-RPC (14+)</text>

  <rect x="590" y="922" width="140" height="20" rx="4" fill="rgba(0,0,0,0.15)"/>
  <text x="660" y="936" text-anchor="middle" fill="rgba(255,255,255,0.5)" font-size="8.5">Retryable_Http</text>

  <!-- HTTPS line -->
  <line x1="550" y1="948" x2="550" y2="1010" stroke="#e67e22" stroke-width="2.5" stroke-dasharray="6,4" filter="url(#g)"/>
  <text x="575" y="985" fill="#e67e22" font-size="10" font-weight="600" letter-spacing="1">HTTPS</text>

  <!-- Odoo ERP -->
  <rect x="400" y="1020" width="300" height="50" rx="10" fill="url(#odooBg)" filter="url(#s)"/>
  <text x="550" y="1042" text-anchor="middle" fill="#fff" font-size="15" font-weight="700">Odoo ERP</text>
  <text x="550" y="1060" text-anchor="middle" fill="rgba(255,255,255,0.7)" font-size="10">v14+</text>
</svg>
