<svg xmlns="http://www.w3.org/2000/svg" viewBox="0 0 1100 1620" font-family="'SF Mono','Fira Code','JetBrains Mono',monospace">
  <defs>
    <linearGradient id="wpBg" x1="0%" y1="0%" x2="100%" y2="100%">
      <stop offset="0%" stop-color="#1a1a2e"/><stop offset="100%" stop-color="#16213e"/>
    </linearGradient>
    <linearGradient id="odooBg" x1="0%" y1="0%" x2="100%" y2="100%">
      <stop offset="0%" stop-color="#714B67"/><stop offset="100%" stop-color="#8F5C7A"/>
    </linearGradient>
    <linearGradient id="bidir" x1="0%" y1="0%" x2="0%" y2="100%">
      <stop offset="0%" stop-color="#3b82f6"/><stop offset="100%" stop-color="#2563eb"/>
    </linearGradient>
    <linearGradient id="push" x1="0%" y1="0%" x2="0%" y2="100%">
      <stop offset="0%" stop-color="#10b981"/><stop offset="100%" stop-color="#059669"/>
    </linearGradient>
    <linearGradient id="pull" x1="0%" y1="0%" x2="0%" y2="100%">
      <stop offset="0%" stop-color="#f59e0b"/><stop offset="100%" stop-color="#d97706"/>
    </linearGradient>
    <linearGradient id="infra" x1="0%" y1="0%" x2="100%" y2="100%">
      <stop offset="0%" stop-color="#2c3e50"/><stop offset="100%" stop-color="#34495e"/>
    </linearGradient>
    <linearGradient id="client" x1="0%" y1="0%" x2="100%" y2="100%">
      <stop offset="0%" stop-color="#e67e22"/><stop offset="100%" stop-color="#d35400"/>
    </linearGradient>
    <filter id="s">
      <feDropShadow dx="0" dy="2" stdDeviation="3" flood-color="#000" flood-opacity="0.35"/>
    </filter>
    <filter id="g">
      <feGaussianBlur stdDeviation="2" result="b"/>
      <feMerge><feMergeNode in="b"/><feMergeNode in="SourceGraphic"/></feMerge>
    </filter>
  </defs>

  <!-- Background -->
  <rect width="1100" height="1620" rx="12" fill="#0d1117"/>

  <!-- WordPress container -->
  <rect x="30" y="20" width="1040" height="1460" rx="10" fill="url(#wpBg)" stroke="#30363d" stroke-width="1.5" filter="url(#s)"/>
  <text x="550" y="48" text-anchor="middle" fill="#58a6ff" font-size="15" font-weight="700" letter-spacing="3">WORDPRESS</text>

  <!-- Legend -->
  <rect x="700" y="37" width="10" height="10" rx="2" fill="url(#bidir)"/>
  <text x="715" y="46" fill="#8b949e" font-size="9">Bidirectional</text>
  <rect x="810" y="37" width="10" height="10" rx="2" fill="url(#push)"/>
  <text x="825" y="46" fill="#8b949e" font-size="9">WP &#8594; Odoo</text>
  <rect x="910" y="37" width="10" height="10" rx="2" fill="url(#pull)"/>
  <text x="925" y="46" fill="#8b949e" font-size="9">Odoo &#8594; WP</text>

  <!-- ═══ ROW 1: COMMERCE ═══ -->
  <text x="55" y="72" fill="#484f58" font-size="9" font-weight="600" letter-spacing="1">COMMERCE</text>

  <rect x="80" y="78" width="220" height="50" rx="7" fill="url(#bidir)" filter="url(#s)"/>
  <text x="190" y="99" text-anchor="middle" fill="#fff" font-size="11" font-weight="700">CRM &#8596;</text>
  <text x="190" y="115" text-anchor="middle" fill="rgba(255,255,255,0.6)" font-size="8.5">Contacts &#183; Leads</text>

  <rect x="320" y="78" width="220" height="50" rx="7" fill="url(#bidir)" filter="url(#s)"/>
  <text x="430" y="99" text-anchor="middle" fill="#fff" font-size="11" font-weight="700">WooCommerce &#8596;</text>
  <text x="430" y="115" text-anchor="middle" fill="rgba(255,255,255,0.6)" font-size="8.5">Products &#183; Orders &#183; Variants</text>

  <rect x="560" y="78" width="220" height="50" rx="7" fill="url(#bidir)" filter="url(#s)"/>
  <text x="670" y="99" text-anchor="middle" fill="#fff" font-size="11" font-weight="700">EDD &#8596;</text>
  <text x="670" y="115" text-anchor="middle" fill="rgba(255,255,255,0.6)" font-size="8.5">Downloads &#183; Orders</text>

  <rect x="800" y="78" width="220" height="50" rx="7" fill="url(#bidir)" filter="url(#s)"/>
  <text x="910" y="99" text-anchor="middle" fill="#fff" font-size="11" font-weight="700">SureCart &#8596;</text>
  <text x="910" y="115" text-anchor="middle" fill="rgba(255,255,255,0.6)" font-size="8.5">Products &#183; Orders &#183; Subs</text>

  <!-- ROW 2: COMMERCE cont -->
  <rect x="80" y="136" width="220" height="50" rx="7" fill="url(#pull)" filter="url(#s)"/>
  <text x="190" y="157" text-anchor="middle" fill="#fff" font-size="11" font-weight="700">Sales &#8592;</text>
  <text x="190" y="173" text-anchor="middle" fill="rgba(255,255,255,0.6)" font-size="8.5">Orders &#183; Invoices &#183; Portal</text>

  <rect x="320" y="136" width="220" height="50" rx="7" fill="url(#push)" filter="url(#s)"/>
  <text x="430" y="157" text-anchor="middle" fill="#fff" font-size="11" font-weight="700">Ecwid &#8594;</text>
  <text x="430" y="173" text-anchor="middle" fill="rgba(255,255,255,0.6)" font-size="8.5">Products &#183; Orders</text>

  <rect x="560" y="136" width="220" height="50" rx="7" fill="url(#push)" filter="url(#s)"/>
  <text x="670" y="157" text-anchor="middle" fill="#fff" font-size="11" font-weight="700">ShopWP &#8594;</text>
  <text x="670" y="173" text-anchor="middle" fill="rgba(255,255,255,0.6)" font-size="8.5">Shopify Products</text>

  <rect x="800" y="136" width="220" height="50" rx="7" fill="url(#push)" filter="url(#s)"/>
  <text x="910" y="157" text-anchor="middle" fill="#fff" font-size="11" font-weight="700">Crowdfunding &#8594;</text>
  <text x="910" y="173" text-anchor="middle" fill="rgba(255,255,255,0.6)" font-size="8.5">Campaigns &#8594; Products</text>

  <path d="M320,190 L320,197 L1020,197 L1020,190" fill="none" stroke="#ef4444" stroke-width="1.2" opacity="0.7"/>
  <text x="670" y="209" text-anchor="middle" fill="#ef4444" font-size="8" font-weight="600">&#10005; commerce (WC &#8250; EDD &#8250; SureCart &#8250; Sales &#8250; Ecwid &#8250; ShopWP &#8250; Crowdfunding)</text>

  <!-- ═══ ROW 3: MEMBERSHIPS ═══ -->
  <text x="55" y="228" fill="#484f58" font-size="9" font-weight="600" letter-spacing="1">MEMBERSHIPS</text>

  <rect x="80" y="234" width="220" height="50" rx="7" fill="url(#bidir)" filter="url(#s)"/>
  <text x="190" y="255" text-anchor="middle" fill="#fff" font-size="11" font-weight="700">WC Memberships &#8596;</text>
  <text x="190" y="271" text-anchor="middle" fill="rgba(255,255,255,0.6)" font-size="8.5">Plans &#183; Membership Lines</text>

  <rect x="320" y="234" width="220" height="50" rx="7" fill="url(#push)" filter="url(#s)"/>
  <text x="430" y="255" text-anchor="middle" fill="#fff" font-size="11" font-weight="700">MemberPress &#8594;</text>
  <text x="430" y="271" text-anchor="middle" fill="rgba(255,255,255,0.6)" font-size="8.5">Plans &#183; Txn &#183; Subscriptions</text>

  <rect x="560" y="234" width="220" height="50" rx="7" fill="url(#push)" filter="url(#s)"/>
  <text x="670" y="255" text-anchor="middle" fill="#fff" font-size="11" font-weight="700">PMPro &#8594;</text>
  <text x="670" y="271" text-anchor="middle" fill="rgba(255,255,255,0.6)" font-size="8.5">Levels &#183; Orders &#183; Memberships</text>

  <rect x="800" y="234" width="220" height="50" rx="7" fill="url(#push)" filter="url(#s)"/>
  <text x="910" y="255" text-anchor="middle" fill="#fff" font-size="11" font-weight="700">RCP &#8594;</text>
  <text x="910" y="271" text-anchor="middle" fill="rgba(255,255,255,0.6)" font-size="8.5">Levels &#183; Payments &#183; Memberships</text>

  <path d="M80,288 L80,295 L1020,295 L1020,288" fill="none" stroke="#ef4444" stroke-width="1.2" opacity="0.7"/>
  <text x="550" y="307" text-anchor="middle" fill="#ef4444" font-size="8" font-weight="600">&#10005; memberships (mutually exclusive)</text>

  <!-- ═══ ROW 4: DONATIONS &amp; FORMS ═══ -->
  <text x="55" y="326" fill="#a78bfa" font-size="9" font-weight="600" letter-spacing="1">DONATIONS &amp; FORMS</text>

  <rect x="70" y="332" width="720" height="56" rx="6" fill="rgba(167,139,250,0.04)" stroke="#a78bfa" stroke-width="1" stroke-dasharray="5,3" opacity="0.5"/>

  <rect x="80" y="338" width="220" height="44" rx="7" fill="url(#push)" filter="url(#s)"/>
  <text x="190" y="357" text-anchor="middle" fill="#fff" font-size="11" font-weight="700">GiveWP &#8594;</text>
  <text x="190" y="371" text-anchor="middle" fill="rgba(255,255,255,0.6)" font-size="8.5">Forms &#183; Donations</text>

  <rect x="320" y="338" width="220" height="44" rx="7" fill="url(#push)" filter="url(#s)"/>
  <text x="430" y="357" text-anchor="middle" fill="#fff" font-size="11" font-weight="700">Charitable &#8594;</text>
  <text x="430" y="371" text-anchor="middle" fill="rgba(255,255,255,0.6)" font-size="8.5">Campaigns &#183; Donations</text>

  <rect x="560" y="338" width="220" height="44" rx="7" fill="url(#push)" filter="url(#s)"/>
  <text x="670" y="357" text-anchor="middle" fill="#fff" font-size="11" font-weight="700">WP Simple Pay &#8594;</text>
  <text x="670" y="371" text-anchor="middle" fill="rgba(255,255,255,0.6)" font-size="8.5">Forms &#183; Stripe Payments</text>

  <rect x="800" y="336" width="220" height="48" rx="7" fill="url(#push)" filter="url(#s)"/>
  <text x="910" y="357" text-anchor="middle" fill="#fff" font-size="11" font-weight="700">Forms &#8594;</text>
  <text x="910" y="371" text-anchor="middle" fill="rgba(255,255,255,0.6)" font-size="8.5">11 plugins &#8594; Leads</text>

  <text x="430" y="400" text-anchor="middle" fill="#a78bfa" font-size="7.5" font-weight="600" opacity="0.7">Dual_Accounting &#183; Odoo_Accounting_Formatter</text>

  <!-- ═══ ROW 5: INVOICING &amp; LMS ═══ -->
  <rect x="80" y="412" width="220" height="50" rx="7" fill="url(#bidir)" filter="url(#s)"/>
  <text x="190" y="433" text-anchor="middle" fill="#fff" font-size="11" font-weight="700">Sprout Invoices &#8596;</text>
  <text x="190" y="449" text-anchor="middle" fill="rgba(255,255,255,0.6)" font-size="8.5">Invoices &#183; Payments</text>

  <rect x="320" y="412" width="220" height="50" rx="7" fill="url(#push)" filter="url(#s)"/>
  <text x="430" y="433" text-anchor="middle" fill="#fff" font-size="11" font-weight="700">WP-Invoice &#8594;</text>
  <text x="430" y="449" text-anchor="middle" fill="rgba(255,255,255,0.6)" font-size="8.5">Invoices</text>

  <path d="M80,466 L80,473 L540,473 L540,466" fill="none" stroke="#ef4444" stroke-width="1.2" opacity="0.7"/>
  <text x="310" y="485" text-anchor="middle" fill="#ef4444" font-size="8" font-weight="600">&#10005; invoicing (SI &#8250; WPI)</text>

  <rect x="560" y="412" width="220" height="50" rx="7" fill="url(#bidir)" filter="url(#s)"/>
  <text x="670" y="433" text-anchor="middle" fill="#fff" font-size="11" font-weight="700">LearnDash &#8596;</text>
  <text x="670" y="449" text-anchor="middle" fill="rgba(255,255,255,0.6)" font-size="8.5">Courses &#183; Groups &#183; Enrollments</text>

  <rect x="800" y="412" width="220" height="50" rx="7" fill="url(#bidir)" filter="url(#s)"/>
  <text x="910" y="433" text-anchor="middle" fill="#fff" font-size="11" font-weight="700">LifterLMS &#8596;</text>
  <text x="910" y="449" text-anchor="middle" fill="rgba(255,255,255,0.6)" font-size="8.5">Courses &#183; Orders &#183; Enrollments</text>

  <!-- ═══ ROW 6: LMS cont ═══ -->
  <text x="55" y="502" fill="#484f58" font-size="9" font-weight="600" letter-spacing="1">LMS</text>

  <rect x="80" y="508" width="220" height="50" rx="7" fill="url(#bidir)" filter="url(#s)"/>
  <text x="190" y="529" text-anchor="middle" fill="#fff" font-size="11" font-weight="700">TutorLMS &#8596;</text>
  <text x="190" y="545" text-anchor="middle" fill="rgba(255,255,255,0.6)" font-size="8.5">Courses &#183; Orders &#183; Enrollments</text>

  <rect x="320" y="508" width="220" height="50" rx="7" fill="url(#bidir)" filter="url(#s)"/>
  <text x="430" y="529" text-anchor="middle" fill="#fff" font-size="11" font-weight="700">LearnPress &#8596;</text>
  <text x="430" y="545" text-anchor="middle" fill="rgba(255,255,255,0.6)" font-size="8.5">Courses &#183; Orders &#183; Enrollments</text>

  <rect x="560" y="508" width="220" height="50" rx="7" fill="url(#bidir)" filter="url(#s)"/>
  <text x="670" y="529" text-anchor="middle" fill="#fff" font-size="11" font-weight="700">Sensei &#8596;</text>
  <text x="670" y="545" text-anchor="middle" fill="rgba(255,255,255,0.6)" font-size="8.5">Courses &#183; Orders &#183; Enrollments</text>

  <rect x="800" y="508" width="220" height="50" rx="7" fill="url(#push)" filter="url(#s)"/>
  <text x="910" y="529" text-anchor="middle" fill="#fff" font-size="11" font-weight="700">WP Recipe Maker &#8594;</text>
  <text x="910" y="545" text-anchor="middle" fill="rgba(255,255,255,0.6)" font-size="8.5">Recipes &#8594; Products</text>

  <path d="M560,462 L560,570 L1020,570 L1020,462" fill="none" stroke="#ef4444" stroke-width="1" opacity="0.4" stroke-dasharray="4,3"/>
  <path d="M80,562 L80,570 L540,570 L540,562" fill="none" stroke="#ef4444" stroke-width="1" opacity="0.4"/>
  <text x="550" y="582" text-anchor="middle" fill="#ef4444" font-size="8" font-weight="600">&#10005; lms (LD &#8250; LLMS &#8250; Tutor &#8250; LP &#8250; Sensei)</text>

  <!-- ═══ ROW 7: BOOKING &amp; EVENTS ═══ -->
  <text x="55" y="600" fill="#484f58" font-size="9" font-weight="600" letter-spacing="1">BOOKING &amp; EVENTS</text>

  <rect x="80" y="606" width="220" height="50" rx="7" fill="url(#bidir)" filter="url(#s)"/>
  <text x="190" y="627" text-anchor="middle" fill="#fff" font-size="11" font-weight="700">Amelia &#8596;</text>
  <text x="190" y="643" text-anchor="middle" fill="rgba(255,255,255,0.6)" font-size="8.5">Services &#183; Appointments</text>

  <rect x="320" y="606" width="220" height="50" rx="7" fill="url(#bidir)" filter="url(#s)"/>
  <text x="430" y="627" text-anchor="middle" fill="#fff" font-size="11" font-weight="700">Bookly &#8596;</text>
  <text x="430" y="643" text-anchor="middle" fill="rgba(255,255,255,0.6)" font-size="8.5">Services &#183; Bookings</text>

  <rect x="560" y="606" width="220" height="50" rx="7" fill="url(#bidir)" filter="url(#s)"/>
  <text x="670" y="627" text-anchor="middle" fill="#fff" font-size="11" font-weight="700">JetAppointments &#8596;</text>
  <text x="670" y="643" text-anchor="middle" fill="rgba(255,255,255,0.6)" font-size="8.5">Services &#183; Appointments</text>

  <rect x="800" y="606" width="220" height="50" rx="7" fill="url(#bidir)" filter="url(#s)"/>
  <text x="910" y="627" text-anchor="middle" fill="#fff" font-size="11" font-weight="700">JetBooking &#8596;</text>
  <text x="910" y="643" text-anchor="middle" fill="rgba(255,255,255,0.6)" font-size="8.5">Services &#183; Bookings</text>

  <!-- ROW 8: BOOKING cont + EVENTS -->
  <rect x="80" y="664" width="220" height="50" rx="7" fill="url(#bidir)" filter="url(#s)"/>
  <text x="190" y="685" text-anchor="middle" fill="#fff" font-size="11" font-weight="700">WC Bookings &#8596;</text>
  <text x="190" y="701" text-anchor="middle" fill="rgba(255,255,255,0.6)" font-size="8.5">Products &#183; Bookings</text>

  <rect x="320" y="664" width="220" height="50" rx="7" fill="url(#bidir)" filter="url(#s)"/>
  <text x="430" y="685" text-anchor="middle" fill="#fff" font-size="11" font-weight="700">Events Calendar &#8596;</text>
  <text x="430" y="701" text-anchor="middle" fill="rgba(255,255,255,0.6)" font-size="8.5">Events &#183; Tickets &#183; Attendees</text>

  <!-- ═══ ROW 8 cont: SPECIALTY ═══ -->
  <rect x="560" y="664" width="220" height="50" rx="7" fill="url(#push)" filter="url(#s)"/>
  <text x="670" y="685" text-anchor="middle" fill="#fff" font-size="11" font-weight="700">Food Ordering &#8594;</text>
  <text x="670" y="701" text-anchor="middle" fill="rgba(255,255,255,0.6)" font-size="8.5">GloriaFood &#183; WPPizza &#183; RestroPress</text>

  <rect x="800" y="664" width="220" height="50" rx="7" fill="url(#push)" filter="url(#s)"/>
  <text x="910" y="685" text-anchor="middle" fill="#fff" font-size="11" font-weight="700">Survey &amp; Quiz &#8594;</text>
  <text x="910" y="701" text-anchor="middle" fill="rgba(255,255,255,0.6)" font-size="8.5">Quiz Maker &#183; QSM</text>

  <!-- ═══ ROW 9: WC EXTENSIONS ═══ -->
  <text x="55" y="730" fill="#484f58" font-size="9" font-weight="600" letter-spacing="1">WC EXTENSIONS</text>

  <rect x="80" y="736" width="220" height="50" rx="7" fill="url(#bidir)" filter="url(#s)"/>
  <text x="190" y="757" text-anchor="middle" fill="#fff" font-size="11" font-weight="700">WC Subscriptions &#8596;</text>
  <text x="190" y="773" text-anchor="middle" fill="rgba(255,255,255,0.6)" font-size="8.5">Products &#183; Subs &#183; Renewals</text>

  <rect x="320" y="736" width="220" height="50" rx="7" fill="url(#push)" filter="url(#s)"/>
  <text x="430" y="757" text-anchor="middle" fill="#fff" font-size="11" font-weight="700">WC Bundle BOM &#8594;</text>
  <text x="430" y="773" text-anchor="middle" fill="rgba(255,255,255,0.6)" font-size="8.5">Bundles &#8594; mrp.bom</text>

  <rect x="560" y="736" width="220" height="50" rx="7" fill="url(#bidir)" filter="url(#s)"/>
  <text x="670" y="757" text-anchor="middle" fill="#fff" font-size="11" font-weight="700">WC Points &#8596;</text>
  <text x="670" y="773" text-anchor="middle" fill="rgba(255,255,255,0.6)" font-size="8.5">Points &#8596; loyalty.card</text>

  <rect x="800" y="736" width="220" height="50" rx="7" fill="url(#push)" filter="url(#s)"/>
  <text x="910" y="757" text-anchor="middle" fill="#fff" font-size="11" font-weight="700">WC Add-Ons &#8594;</text>
  <text x="910" y="773" text-anchor="middle" fill="rgba(255,255,255,0.6)" font-size="8.5">Attributes &#183; BOM components</text>

  <!-- ROW 10: WC EXTENSIONS cont -->
  <rect x="80" y="794" width="220" height="50" rx="7" fill="url(#bidir)" filter="url(#s)"/>
  <text x="190" y="815" text-anchor="middle" fill="#fff" font-size="11" font-weight="700">WC Inventory &#8596;</text>
  <text x="190" y="831" text-anchor="middle" fill="rgba(255,255,255,0.6)" font-size="8.5">Warehouses &#183; Stock Moves</text>

  <rect x="320" y="794" width="220" height="50" rx="7" fill="url(#bidir)" filter="url(#s)"/>
  <text x="430" y="815" text-anchor="middle" fill="#fff" font-size="11" font-weight="700">WC Shipping &#8596;</text>
  <text x="430" y="831" text-anchor="middle" fill="rgba(255,255,255,0.6)" font-size="8.5">Tracking &#183; Carriers</text>

  <rect x="560" y="794" width="220" height="50" rx="7" fill="url(#bidir)" filter="url(#s)"/>
  <text x="670" y="815" text-anchor="middle" fill="#fff" font-size="11" font-weight="700">WC Returns &#8596;</text>
  <text x="670" y="831" text-anchor="middle" fill="rgba(255,255,255,0.6)" font-size="8.5">Refunds &#183; Credit Notes</text>

  <rect x="800" y="794" width="220" height="50" rx="7" fill="url(#push)" filter="url(#s)"/>
  <text x="910" y="815" text-anchor="middle" fill="#fff" font-size="11" font-weight="700">WC B2B &#8594;</text>
  <text x="910" y="831" text-anchor="middle" fill="rgba(255,255,255,0.6)" font-size="8.5">Wholesale &#183; Pricelists</text>

  <!-- ROW 11: WC EXTENSIONS cont + MARKETPLACE -->
  <rect x="80" y="852" width="220" height="50" rx="7" fill="url(#push)" filter="url(#s)"/>
  <text x="190" y="873" text-anchor="middle" fill="#fff" font-size="11" font-weight="700">WC Rental &#8594;</text>
  <text x="190" y="889" text-anchor="middle" fill="rgba(255,255,255,0.6)" font-size="8.5">Rental &#8594; sale.order</text>

  <rect x="320" y="852" width="220" height="50" rx="7" fill="url(#push)" filter="url(#s)"/>
  <text x="430" y="873" text-anchor="middle" fill="#fff" font-size="11" font-weight="700">Jeero &#8594;</text>
  <text x="430" y="889" text-anchor="middle" fill="rgba(255,255,255,0.6)" font-size="8.5">Configurator &#8594; mrp.bom</text>

  <rect x="560" y="852" width="220" height="50" rx="7" fill="url(#bidir)" filter="url(#s)"/>
  <text x="670" y="873" text-anchor="middle" fill="#fff" font-size="11" font-weight="700">Dokan &#8596;</text>
  <text x="670" y="889" text-anchor="middle" fill="rgba(255,255,255,0.6)" font-size="8.5">Vendors &#183; Sub-orders &#183; Commissions</text>

  <rect x="800" y="852" width="220" height="50" rx="7" fill="url(#bidir)" filter="url(#s)"/>
  <text x="910" y="873" text-anchor="middle" fill="#fff" font-size="11" font-weight="700">WCFM &#8596;</text>
  <text x="910" y="889" text-anchor="middle" fill="rgba(255,255,255,0.6)" font-size="8.5">Vendors &#183; Sub-orders &#183; Commissions</text>

  <!-- ═══ ROW 12: MARKETPLACE cont + HELPDESK ═══ -->
  <text x="55" y="920" fill="#484f58" font-size="9" font-weight="600" letter-spacing="1">HELPDESK &amp; MARKETPLACE</text>

  <rect x="80" y="926" width="220" height="50" rx="7" fill="url(#bidir)" filter="url(#s)"/>
  <text x="190" y="947" text-anchor="middle" fill="#fff" font-size="11" font-weight="700">WC Vendors &#8596;</text>
  <text x="190" y="963" text-anchor="middle" fill="rgba(255,255,255,0.6)" font-size="8.5">Vendors &#183; Commissions &#183; Payouts</text>

  <path d="M560,906 L560,913 L1020,913 L1020,906" fill="none" stroke="#ef4444" stroke-width="1" opacity="0.5"/>
  <path d="M80,980 L80,985 L220,985" fill="none" stroke="#ef4444" stroke-width="1" opacity="0.5"/>
  <text x="750" y="915" text-anchor="middle" fill="#ef4444" font-size="7.5" opacity="0.7">&#10005; marketplace (Dokan &#8250; WCFM &#8250; WC Vendors)</text>

  <rect x="320" y="926" width="220" height="50" rx="7" fill="url(#bidir)" filter="url(#s)"/>
  <text x="430" y="947" text-anchor="middle" fill="#fff" font-size="11" font-weight="700">Awesome Support &#8596;</text>
  <text x="430" y="963" text-anchor="middle" fill="rgba(255,255,255,0.6)" font-size="8.5">Tickets &#183; Helpdesk</text>

  <rect x="560" y="926" width="220" height="50" rx="7" fill="url(#bidir)" filter="url(#s)"/>
  <text x="670" y="947" text-anchor="middle" fill="#fff" font-size="11" font-weight="700">SupportCandy &#8596;</text>
  <text x="670" y="963" text-anchor="middle" fill="rgba(255,255,255,0.6)" font-size="8.5">Tickets &#183; Helpdesk</text>

  <rect x="800" y="926" width="220" height="50" rx="7" fill="url(#bidir)" filter="url(#s)"/>
  <text x="910" y="947" text-anchor="middle" fill="#fff" font-size="11" font-weight="700">Fluent Support &#8596;</text>
  <text x="910" y="963" text-anchor="middle" fill="rgba(255,255,255,0.6)" font-size="8.5">Tickets &#183; Helpdesk</text>

  <path d="M320,980 L320,987 L1020,987 L1020,980" fill="none" stroke="#ef4444" stroke-width="1" opacity="0.5"/>
  <text x="670" y="999" text-anchor="middle" fill="#ef4444" font-size="7.5" opacity="0.7">&#10005; helpdesk (AS &#8250; SC &#8250; FS)</text>

  <!-- ═══ ROW 13: MARKETING ═══ -->
  <text x="55" y="1018" fill="#484f58" font-size="9" font-weight="600" letter-spacing="1">MARKETING</text>

  <rect x="80" y="1024" width="186" height="50" rx="7" fill="url(#push)" filter="url(#s)"/>
  <text x="173" y="1045" text-anchor="middle" fill="#fff" font-size="10" font-weight="700">AffiliateWP &#8594;</text>
  <text x="173" y="1061" text-anchor="middle" fill="rgba(255,255,255,0.6)" font-size="8">Affiliates &#183; Vendor Bills</text>

  <rect x="282" y="1024" width="186" height="50" rx="7" fill="url(#bidir)" filter="url(#s)"/>
  <text x="375" y="1045" text-anchor="middle" fill="#fff" font-size="10" font-weight="700">FluentCRM &#8596;</text>
  <text x="375" y="1061" text-anchor="middle" fill="rgba(255,255,255,0.6)" font-size="8">Subscribers &#183; Lists &#183; Tags</text>

  <rect x="484" y="1024" width="186" height="50" rx="7" fill="url(#bidir)" filter="url(#s)"/>
  <text x="577" y="1045" text-anchor="middle" fill="#fff" font-size="10" font-weight="700">FunnelKit &#8596;</text>
  <text x="577" y="1061" text-anchor="middle" fill="rgba(255,255,255,0.6)" font-size="8">Contacts &#183; Pipeline Stages</text>

  <rect x="686" y="1024" width="186" height="50" rx="7" fill="url(#bidir)" filter="url(#s)"/>
  <text x="779" y="1045" text-anchor="middle" fill="#fff" font-size="10" font-weight="700">MailPoet &#8596;</text>
  <text x="779" y="1061" text-anchor="middle" fill="rgba(255,255,255,0.6)" font-size="8">Subscribers &#183; Lists</text>

  <rect x="888" y="1024" width="132" height="50" rx="7" fill="url(#bidir)" filter="url(#s)"/>
  <text x="954" y="1045" text-anchor="middle" fill="#fff" font-size="10" font-weight="700">MC4WP &#8596;</text>
  <text x="954" y="1061" text-anchor="middle" fill="rgba(255,255,255,0.6)" font-size="8">Subscribers &#183; Lists</text>

  <!-- ═══ ROW 14: HR &amp; ERP ═══ -->
  <text x="55" y="1093" fill="#484f58" font-size="9" font-weight="600" letter-spacing="1">HR &amp; ERP</text>

  <rect x="80" y="1099" width="220" height="50" rx="7" fill="url(#bidir)" filter="url(#s)"/>
  <text x="190" y="1120" text-anchor="middle" fill="#fff" font-size="11" font-weight="700">WP Job Manager &#8596;</text>
  <text x="190" y="1136" text-anchor="middle" fill="rgba(255,255,255,0.6)" font-size="8.5">Jobs &#8596; hr.job</text>

  <rect x="320" y="1099" width="220" height="50" rx="7" fill="url(#bidir)" filter="url(#s)"/>
  <text x="430" y="1120" text-anchor="middle" fill="#fff" font-size="11" font-weight="700">WP ERP &#8596;</text>
  <text x="430" y="1136" text-anchor="middle" fill="rgba(255,255,255,0.6)" font-size="8.5">Employees &#183; Departments &#183; Leaves</text>

  <rect x="560" y="1099" width="220" height="50" rx="7" fill="url(#bidir)" filter="url(#s)"/>
  <text x="670" y="1120" text-anchor="middle" fill="#fff" font-size="11" font-weight="700">WP ERP CRM &#8596;</text>
  <text x="670" y="1136" text-anchor="middle" fill="rgba(255,255,255,0.6)" font-size="8.5">Contacts &#183; Activities</text>

  <rect x="800" y="1099" width="220" height="50" rx="7" fill="url(#bidir)" filter="url(#s)"/>
  <text x="910" y="1120" text-anchor="middle" fill="#fff" font-size="11" font-weight="700">WP ERP Accounting &#8596;</text>
  <text x="910" y="1136" text-anchor="middle" fill="rgba(255,255,255,0.6)" font-size="8.5">Journals &#183; CoA &#183; Invoices</text>

  <!-- ═══ ROW 15: COMMUNITY &amp; ENTERPRISE ═══ -->
  <text x="55" y="1168" fill="#484f58" font-size="9" font-weight="600" letter-spacing="1">COMMUNITY &amp; ENTERPRISE</text>

  <rect x="80" y="1174" width="220" height="50" rx="7" fill="url(#bidir)" filter="url(#s)"/>
  <text x="190" y="1195" text-anchor="middle" fill="#fff" font-size="11" font-weight="700">GamiPress &#8596;</text>
  <text x="190" y="1211" text-anchor="middle" fill="rgba(255,255,255,0.6)" font-size="8.5">Points &#183; Achievements &#183; Ranks</text>

  <rect x="320" y="1174" width="220" height="50" rx="7" fill="url(#bidir)" filter="url(#s)"/>
  <text x="430" y="1195" text-anchor="middle" fill="#fff" font-size="11" font-weight="700">myCRED &#8596;</text>
  <text x="430" y="1211" text-anchor="middle" fill="rgba(255,255,255,0.6)" font-size="8.5">Points &#183; Badges</text>

  <path d="M80,1228 L80,1233 L540,1233 L540,1228" fill="none" stroke="#ef4444" stroke-width="1" opacity="0.5"/>
  <text x="310" y="1244" text-anchor="middle" fill="#ef4444" font-size="7.5" opacity="0.7">&#10005; gamification (GamiPress &#8250; myCRED)</text>

  <rect x="560" y="1174" width="220" height="50" rx="7" fill="url(#bidir)" filter="url(#s)"/>
  <text x="670" y="1195" text-anchor="middle" fill="#fff" font-size="11" font-weight="700">BuddyBoss &#8596;</text>
  <text x="670" y="1211" text-anchor="middle" fill="rgba(255,255,255,0.6)" font-size="8.5">Profiles &#183; Groups &#183; Tags</text>

  <rect x="800" y="1174" width="220" height="50" rx="7" fill="url(#bidir)" filter="url(#s)"/>
  <text x="910" y="1195" text-anchor="middle" fill="#fff" font-size="11" font-weight="700">Ultimate Member &#8596;</text>
  <text x="910" y="1211" text-anchor="middle" fill="rgba(255,255,255,0.6)" font-size="8.5">Profiles &#183; Roles</text>

  <!-- ═══ ROW 16: ENTERPRISE + PROJECTS + META ═══ -->
  <rect x="80" y="1254" width="186" height="50" rx="7" fill="url(#bidir)" filter="url(#s)"/>
  <text x="173" y="1275" text-anchor="middle" fill="#fff" font-size="10" font-weight="700">Knowledge &#8596;</text>
  <text x="173" y="1291" text-anchor="middle" fill="rgba(255,255,255,0.6)" font-size="8">Posts &#8596; knowledge.article</text>

  <rect x="282" y="1254" width="186" height="50" rx="7" fill="url(#bidir)" filter="url(#s)"/>
  <text x="375" y="1275" text-anchor="middle" fill="#fff" font-size="10" font-weight="700">Documents &#8596;</text>
  <text x="375" y="1291" text-anchor="middle" fill="rgba(255,255,255,0.6)" font-size="8">Files &#183; Folders</text>

  <rect x="484" y="1254" width="186" height="50" rx="7" fill="url(#bidir)" filter="url(#s)"/>
  <text x="577" y="1275" text-anchor="middle" fill="#fff" font-size="10" font-weight="700">Field Service &#8596;</text>
  <text x="577" y="1291" text-anchor="middle" fill="rgba(255,255,255,0.6)" font-size="8">Tasks &#183; CPT</text>

  <rect x="686" y="1254" width="186" height="50" rx="7" fill="url(#bidir)" filter="url(#s)"/>
  <text x="779" y="1275" text-anchor="middle" fill="#fff" font-size="10" font-weight="700">WP Project Mgr &#8596;</text>
  <text x="779" y="1291" text-anchor="middle" fill="rgba(255,255,255,0.6)" font-size="8">Projects &#183; Tasks &#183; Timesheets</text>

  <rect x="888" y="1254" width="132" height="50" rx="7" fill="url(#push)" filter="url(#s)"/>
  <text x="954" y="1275" text-anchor="middle" fill="#fff" font-size="10" font-weight="700">JetEngine &#8594;</text>
  <text x="954" y="1291" text-anchor="middle" fill="rgba(255,255,255,0.6)" font-size="8">Generic CPT</text>

  <!-- ═══ ROW 17: META-MODULES ═══ -->
  <text x="55" y="1323" fill="#484f58" font-size="9" font-weight="600" letter-spacing="1">META-MODULES</text>

  <rect x="80" y="1329" width="300" height="50" rx="7" fill="url(#bidir)" filter="url(#s)"/>
  <text x="230" y="1350" text-anchor="middle" fill="#fff" font-size="11" font-weight="700">ACF &#8596;</text>
  <text x="230" y="1366" text-anchor="middle" fill="rgba(255,255,255,0.6)" font-size="8.5">Custom Fields &#8596; Odoo x_*</text>

  <rect x="400" y="1329" width="300" height="50" rx="7" fill="url(#bidir)" filter="url(#s)"/>
  <text x="550" y="1350" text-anchor="middle" fill="#fff" font-size="11" font-weight="700">JetEngine Meta &#8596;</text>
  <text x="550" y="1366" text-anchor="middle" fill="rgba(255,255,255,0.6)" font-size="8.5">Meta Fields &#8596; Odoo Fields</text>

  <rect x="720" y="1329" width="300" height="50" rx="7" fill="url(#push)" filter="url(#s)"/>
  <text x="870" y="1350" text-anchor="middle" fill="#fff" font-size="11" font-weight="700">WP All Import &#8594;</text>
  <text x="870" y="1366" text-anchor="middle" fill="rgba(255,255,255,0.6)" font-size="8.5">CSV/XML &#8594; Sync Queue</text>

  <!-- ═══ Connector to infrastructure ═══ -->
  <line x1="550" y1="1387" x2="550" y2="1403" stroke="#484f58" stroke-width="2"/>
  <polygon points="550,1408 545,1400 555,1400" fill="#484f58"/>

  <!-- ═══ CORE INFRASTRUCTURE ═══ -->
  <rect x="60" y="1410" width="980" height="60" rx="8" fill="rgba(255,255,255,0.03)" stroke="#30363d" stroke-width="1" stroke-dasharray="4,4"/>
  <text x="1020" y="1424" text-anchor="end" fill="#484f58" font-size="9" font-weight="600" letter-spacing="1">CORE</text>

  <rect x="80" y="1420" width="160" height="38" rx="6" fill="url(#infra)" filter="url(#s)"/>
  <text x="160" y="1444" text-anchor="middle" fill="#e6edf3" font-size="9" font-weight="700">Sync Engine</text>

  <rect x="260" y="1420" width="160" height="38" rx="6" fill="url(#infra)" filter="url(#s)"/>
  <text x="340" y="1444" text-anchor="middle" fill="#e6edf3" font-size="9" font-weight="700">Queue Manager</text>

  <rect x="440" y="1420" width="160" height="38" rx="6" fill="url(#infra)" filter="url(#s)"/>
  <text x="520" y="1444" text-anchor="middle" fill="#e6edf3" font-size="9" font-weight="700">Partner Service</text>

  <rect x="620" y="1420" width="160" height="38" rx="6" fill="url(#infra)" filter="url(#s)"/>
  <text x="700" y="1444" text-anchor="middle" fill="#e6edf3" font-size="9" font-weight="700">Entity Map</text>

  <rect x="800" y="1420" width="220" height="38" rx="6" fill="url(#infra)" filter="url(#s)"/>
  <text x="910" y="1444" text-anchor="middle" fill="#e6edf3" font-size="9" font-weight="700">Webhook &#183; Logger &#183; Mapper</text>

  <!-- Odoo Client -->
  <rect x="250" y="1482" width="600" height="45" rx="8" fill="url(#client)" filter="url(#s)"/>
  <text x="550" y="1500" text-anchor="middle" fill="#fff" font-size="11" font-weight="700">Odoo Client</text>
  <rect x="290" y="1507" width="120" height="18" rx="4" fill="rgba(0,0,0,0.25)"/>
  <text x="350" y="1519" text-anchor="middle" fill="rgba(255,255,255,0.85)" font-size="8" font-weight="600">JSON-RPC (17+)</text>
  <rect x="440" y="1507" width="120" height="18" rx="4" fill="rgba(0,0,0,0.25)"/>
  <text x="500" y="1519" text-anchor="middle" fill="rgba(255,255,255,0.85)" font-size="8" font-weight="600">XML-RPC (14+)</text>
  <rect x="590" y="1507" width="130" height="18" rx="4" fill="rgba(0,0,0,0.15)"/>
  <text x="655" y="1519" text-anchor="middle" fill="rgba(255,255,255,0.5)" font-size="8">Retryable_Http</text>

  <!-- HTTPS line -->
  <line x1="550" y1="1530" x2="550" y2="1565" stroke="#e67e22" stroke-width="2.5" stroke-dasharray="6,4" filter="url(#g)"/>
  <text x="575" y="1553" fill="#e67e22" font-size="10" font-weight="600" letter-spacing="1">HTTPS</text>

  <!-- Odoo ERP -->
  <rect x="400" y="1567" width="300" height="45" rx="10" fill="url(#odooBg)" filter="url(#s)"/>
  <text x="550" y="1587" text-anchor="middle" fill="#fff" font-size="15" font-weight="700">Odoo ERP</text>
  <text x="550" y="1605" text-anchor="middle" fill="rgba(255,255,255,0.7)" font-size="10">v14+</text>
</svg>
